<?xml version="1.0" encoding="utf-8"?>
<!-- Generator: Adobe Illustrator 16.0.0, SVG Export Plug-In . SVG Version: 6.00 Build 0)  -->
<!DOCTYPE svg PUBLIC "-//W3C//DTD SVG 1.1//EN" "http://www.w3.org/Graphics/SVG/1.1/DTD/svg11.dtd">
<svg version="1.1" id="Layer_1" xmlns="http://www.w3.org/2000/svg" xmlns:xlink="http://www.w3.org/1999/xlink" x="0px" y="0px"
	 width="512px" height="512px" viewBox="0 0 512 512" enable-background="new 0 0 512 512" xml:space="preserve">
<g>
	<g>
		<path fill="#EFD3D8" d="M255.996,0C114.616,0,0.002,114.618,0.002,255.998C0.002,397.374,114.616,512,255.996,512
			c141.38,0,256.002-114.626,256.002-256.002C511.998,114.614,397.376,0,255.996,0z M255.996,100.945
			c42.72,0,77.358,34.632,77.358,77.355c0,42.729-34.633,77.36-77.358,77.36s-77.355-34.632-77.355-77.36
			C178.64,135.577,213.276,100.945,255.996,100.945z M287.904,362.768h-0.002v28.007v3.461h-31.171h-1.475H143.123
			c0-76.244,41.476-103.376,68.686-127.733c13.182,7.083,28.215,11.146,44.189,11.266c15.971-0.119,31.006-4.183,44.18-11.266
			c12.191,10.911,27.228,22.394,40.127,38.582h-12.416v17.704v22.274h-22.279h-17.705V362.768z M373.597,390.774v39.979H345.59
			v-39.979h-39.984v-28.007h39.984v-39.979h28.004v39.979h39.975v28.007H373.597z"/>
	</g>
</g>
</svg>
